<svg xmlns="http://www.w3.org/2000/svg" width="128" height="128" viewBox="0 0 128 128">
  <title>icon</title>
  <rect width="128" height="128" style="fill: #106f99"/>
  <path d="M81,128v-.3h.5v-.5H82v-.5h.5v-.5H83v-.5h.5v-.5H84v-.5h.5v-.5H85v-.5h.5v-.5H86v-.5h.5v-.5H87v-.5h.5v-.5H88v-.5h.5v-.5H89v-.5h.5v-.5H90v-.5h.5v-.5H91v-.5h.5v-.5H92v-.5h.5v-.5H93v-.5h.5v-.5H94v-.5h.5v-.5H95v-.5h.5v-.5H96v-.5h.5v-.5H97v-.5h.5v-.5H98v-.5h.5v-.5H99v-.5h.5v-.5h.5v-.5h.5v-.5h.5v-.5h.5v-.5h.5v-.5h.5v-.5h.5v-.5h.5v-.5h.5v-.5h.5v-.5h.5v-.5h.5v-.5h.5v-.5h.5v-.5h.5v-.5h.5v-.5h.5v-.5h.5v-.5h.5v-.5h.5v-.5h.5v-.5h.5v-.5h.5v-.5h.5v-.5h.5v-.5h.5v-.5h.5v-10H93.4v-10l-.5.5h0l-.5.5h0l-.5.5h0l-.5.5h0l-.5.5h0l-.5.5h0l-.5.5h0l-.5.5h0l-.5.5h0l-.5.5h0l-.5.5h0l-.5.5h0l-.5.5h0l-.5.5h0l-.5.5h0l-.5.5h0l-.5.5h0l-.5.5h0l-.5.5h0l-.5.5h0l-.5.5h0l-.5.5h0l-.5.5h0l-.5.5h0l-.5.5h0l-.5.5h0l-.5.5h0l-.5.5h0l-.5.5h0l-.5.5h0l-.5.5h0l-.5.5h0l-.5.5h0l-.5.5h0l-.5.5h0l-.5.5h0l-.5.5h0l-.5.5h0l-.5.5h0l-.5.5h0l-.5.5h0l-.5.5h0l-.5.5h0l-.5.5h0l-.5.5h0l-.5.5h-.1a24.2,24.2,0,0,1-1.4-8.1,25.9,25.9,0,0,1,5-15.2l.3-.2h-.1l.6-.5h-.1l.6-.5h-.1l.6-.5h-.1l.6-.5h-.1l.6-.5h-.1l.6-.5h-.1l.6-.5h-.1l.6-.5h-.1l.6-.5h-.1l.6-.5a54.7,54.7,0,0,0-11-3.3,68.9,68.9,0,0,0-10.4-1.2h0a1.2,1.2,0,0,0,.5-.5,1.2,1.2,0,0,0,.5-.5,1.2,1.2,0,0,0,.5-.5,1.2,1.2,0,0,0,.5-.5,1.2,1.2,0,0,0,.5-.5,1.2,1.2,0,0,0,.5-.5,1.2,1.2,0,0,0,.5-.5,1.2,1.2,0,0,0,.5-.5,1.2,1.2,0,0,0,.5-.5,1.2,1.2,0,0,0,.5-.5,1.2,1.2,0,0,0,.5-.5,1.2,1.2,0,0,0,.5-.5,1.2,1.2,0,0,0,.5-.5,1.2,1.2,0,0,0,.5-.5,1.2,1.2,0,0,0,.5-.5,1.2,1.2,0,0,0,.5-.5,1.2,1.2,0,0,0,.5-.5,1.2,1.2,0,0,0,.5-.5,1.2,1.2,0,0,0,.5-.5,1.2,1.2,0,0,0,.5-.5,20.1,20.1,0,0,0,6.1-14.4,19.8,19.8,0,0,0-19.6-20,19.3,19.3,0,0,0-14.1,6.1l-.5.5-.5.5-.5.5-.5.5-.5.5-.5.5-.5.5-.5.5-.5.5-.5.5-.5.5-.5.5-.5.5-.5.5-.5.5-.5.5-.5.5-.5.5-.5.5-.5.5-.5.5-.5.5-.5.5-.5.5-.5.5-.5.5-.5.5-.5.5-.5.5-.5.5-.5.5-.5.5-.5.5-.5.5-.5.5-.5.5-.5.5-.5.5-.5.5-.5.5-.5.5-.5.5-.5.5-.5.5-.5.5-.5.5-.5.5-.5.5-.5.5-.5.5-.5.5-.5.5-.5.5-.5.5-.5.5-.5.5-.5.5-.5.5-.5.5-.5.5-.5.5-.5.5-.5.5-.5.5-.5.5-.5.5-.5.5-.5.5-.5.5-.5.5-.5.5-.5.5-.5.5-.5.5-.5.5-.5.5-.5.5-.5.5-.5.5-.5.5-.2.2V128Z" style="fill: #045572"/>
  <path d="M93.4,106.2l-14.7-15,14.7-15v10H113v10H93.4v10m-24.5-15a23.6,23.6,0,0,0,2.1,10H15v-15c0-11,17.5-20,39.2-20a78.3,78.3,0,0,1,14,1.3,54.7,54.7,0,0,1,11,3.3A25.4,25.4,0,0,0,68.9,91.2m-44.1-5v5H59.1a35.7,35.7,0,0,1,3.1-14.6l-8-.4c-16.2,0-29.4,4.5-29.4,10M54.3,21.8a20,20,0,1,1-19.6,20,19.8,19.8,0,0,1,19.6-20m0,10a10,10,0,1,0,9.8,10A9.9,9.9,0,0,0,54.3,31.8Z" style="fill: #fff"/>
</svg>
